<svg width="46" height="32" viewBox="0 0 46 32" fill="none" xmlns="http://www.w3.org/2000/svg">
<path d="M0 4.00049H40.2351V32.0003H0V4.00049Z" fill="black"/>
<path d="M4 0H44.2351V27.9998H4V0Z" fill="#F2F2F2"/>
<path fill-rule="evenodd" clip-rule="evenodd" d="M43.8316 0.227179H4.05186V27.7727H43.8316V0.227179ZM3.82422 0V27.9998H44.0593V0H3.82422Z" fill="black"/>
<path d="M4.82422 0H45.0593V2.82351H4.82422V0Z" fill="#F2F2F2"/>
<path fill-rule="evenodd" clip-rule="evenodd" d="M43.8316 0.221452H4.05186V2.60206H43.8316V0.221452ZM3.82422 0V2.82351H44.0593V0H3.82422Z" fill="black"/>
<path d="M5.94117 1.4115C5.94117 1.6714 5.73048 1.88209 5.47059 1.88209C5.21069 1.88209 5 1.6714 5 1.4115C5 1.15161 5.21069 0.940918 5.47059 0.940918C5.73048 0.940918 5.94117 1.15161 5.94117 1.4115Z" fill="black"/>
<path d="M7.11695 1.4115C7.11695 1.6714 6.90626 1.88209 6.64637 1.88209C6.38647 1.88209 6.17578 1.6714 6.17578 1.4115C6.17578 1.15161 6.38647 0.940918 6.64637 0.940918C6.90626 0.940918 7.11695 1.15161 7.11695 1.4115Z" fill="black"/>
<path d="M8.29273 1.4115C8.29273 1.6714 8.08205 1.88209 7.82215 1.88209C7.56225 1.88209 7.35156 1.6714 7.35156 1.4115C7.35156 1.15161 7.56225 0.940918 7.82215 0.940918C8.08205 0.940918 8.29273 1.15161 8.29273 1.4115Z" fill="black"/>
<path fill-rule="evenodd" clip-rule="evenodd" d="M24.0374 20.3881C24.7143 20.3881 25.2631 19.8393 25.2631 19.1624C25.2631 18.4855 24.7143 17.9367 24.0374 17.9367C23.3605 17.9367 22.8117 18.4855 22.8117 19.1624C22.8117 19.8393 23.3605 20.3881 24.0374 20.3881ZM24.0374 21.1998C25.1626 21.1998 26.0748 20.2876 26.0748 19.1624C26.0748 18.0372 25.1626 17.125 24.0374 17.125C22.9122 17.125 22 18.0372 22 19.1624C22 20.2876 22.9122 21.1998 24.0374 21.1998Z" fill="black"/>
<path fill-rule="evenodd" clip-rule="evenodd" d="M14.7446 8.16016C14.7446 9.06182 15.4146 9.79277 16.2411 9.79277C17.0677 9.79277 17.7377 9.06182 17.7377 8.16016H18.4823C18.4823 9.51043 17.4789 10.605 16.2411 10.605C15.0034 10.605 14 9.51043 14 8.16016H14.7446Z" fill="black"/>
<path fill-rule="evenodd" clip-rule="evenodd" d="M30.6352 8.16016C30.6352 9.06182 31.3052 9.79277 32.1318 9.79277C32.9583 9.79277 33.6283 9.06182 33.6283 8.16016H34.3729C34.3729 9.51043 33.3695 10.605 32.1318 10.605C30.894 10.605 29.8906 9.51043 29.8906 8.16016H30.6352Z" fill="black"/>
</svg>
